<?xml version="1.0" encoding="utf-8"?>
<!-- Generator: Adobe Illustrator 26.3.1, SVG Export Plug-In . SVG Version: 6.00 Build 0)  -->
<svg version="1.1" id="图层_1" xmlns="http://www.w3.org/2000/svg" xmlns:xlink="http://www.w3.org/1999/xlink" x="0px" y="0px"
	 viewBox="0 0 94 30" style="enable-background:new 0 0 94 30;" xml:space="preserve">
<style type="text/css">
	.st0{fill:none;}
	.st1{fill-rule:evenodd;clip-rule:evenodd;}
</style>
<g id="acfunlogo">
	<g id="分组">
		<rect id="矩形" x="0" class="st0" width="93" height="30"/>
		<path id="合并形状" class="st1" d="M14.9,0.5l15.2,23.8l-7,4.2c-0.4-0.8-0.9-1.7-1.3-2.6c-0.5-0.9-1-1.9-1.6-3L9.6,23.5
			l-2.3,4.9l-6.7-3.8c2.7-4.7,5.5-9.4,8.3-14.1S13.7,2.5,14.9,0.5z M14.8,11.9l-3,6.3l5.9-0.3L14.8,11.9z"/>
		<path id="路径-3" class="st1" d="M41.8,9.4l0.2,4.4c-2.4,0.3-6.6,2-6.6,5.1s4.3,3.3,7,3l0.2,4.1c-4.6,0.7-11.8-0.3-12.3-6.4
			C29.8,13.3,35.6,10.1,41.8,9.4z"/>
		<path id="路径-4" class="st1" d="M44.6,6.6c1.5,0,3.3-0.1,5.3-0.1c2.1-0.1,4.1-0.2,6.2-0.3l0.1,4.5l-5.8,0.1V15l5.3-0.2l0.1,4.3
			l-5.4,0l0,6.9h-5.8c0.1-2.5,0.1-5.6,0.1-9.3S44.6,9.6,44.6,6.6z"/>
		<path id="路径-5" class="st1" d="M63.2,9.7c-0.1,1.6-0.2,3.4-0.1,5.7c0.1,3.4-0.1,6.8,2.8,6.9c3.1,0.1,2.9-3.4,2.9-6.8
			c0-2.3,0-4.3-0.1-6.2c3.4,0,5.2,0,5.2,0c0,7.3,1.4,17-8.4,16.8c-8.7-0.2-7.3-8.4-7.4-16.4C58,9.7,59.7,9.7,63.2,9.7z"/>
		<path id="路径-6" class="st1" d="M76.3,9.2l-0.9,16.6l4.6,0.1L80,17.6c2.6,2.1,4.7,3.7,6.3,5c1.7,1.3,3.3,2.5,5,3.8l1-16.8
			l-4.6-0.1l0,8.3L76.3,9.2z"/>
	</g>
	<rect id="矩形_00000176747579839091367500000014781297114730439845_" class="st0" width="94" height="30"/>
</g>
</svg>
