<?xml version="1.0" encoding="utf-8"?>
<!-- Generator: Adobe Illustrator 26.3.1, SVG Export Plug-In . SVG Version: 6.00 Build 0)  -->
<svg version="1.1" id="图层_1" xmlns:serif="http://www.serif.com/"
	 xmlns="http://www.w3.org/2000/svg" xmlns:xlink="http://www.w3.org/1999/xlink" x="0px" y="0px" viewBox="0 0 1000 1000"
	 style="enable-background:new 0 0 1000 1000;" xml:space="preserve">
<style type="text/css">
	.st0{fill:#727171;}
	.st1{fill:#231815;}
	.st2{fill:#73D6F3;}
	.st3{fill:#FB7299;}
</style>
<path class="st0" d="M500.2,16c6.2,7.1,12,14,17.7,21.1c18.7,23.3,35.6,47.9,50.7,73.7c18.6,31.7,34.2,65.1,46.6,99.7
	c0.2,0.5,0.4,1,0.6,1.5c0.9,1.5,0.3,2.4-1.2,3.2c-5.4,3.1-10.7,6.4-16,9.7c-43.3,27-83.2,59.1-118.8,95.6
	c-11.4,11.7-22.4,23.7-32.8,36.4c-2,2.6-4.8,4.5-7.8,5.6c-26.8,9.6-52.9,21-78.2,34.2c-3.1,1.5-6.2,3.3-9.3,4.9
	c-1.7,0.9-2.2,0.6-2.1-1.1c0.5-10,0.7-19.9,1.5-29.9c0.6-7.7,1.3-15.4,2.1-23c1.5-14.1,3.6-28.1,6.2-42
	c5.6-30.4,13.5-60.4,23.7-89.6c14.6-41.7,33.7-81.6,57-119.1c15.6-25.3,33.2-49.4,52.4-72.1C495,21.9,497.2,18.9,500.2,16L500.2,16z
	"/>
<path class="st1" d="M68.8,748.1c2.2-5.9,4.3-11.5,6.4-16.9c10-25.5,21.7-50.2,35-74.1c15.3-27.4,32.8-53.6,52.2-78.4
	c7.1-9,14.3-17.9,22-26.4c1.9-2.1,1.9-2.1,4.5-0.7c28.5,15.7,58.2,29.2,88.8,40.4c23.3,8.5,47.1,15.7,71.2,21.4
	c16.9,4,33.8,7.4,51,10c1.6,0.2,3,0.9,4.3,2c10.3,8.5,20.9,16.7,31.8,24.6c12.7,9.2,25.7,17.8,39,26.1c3.3,2.1,6.6,4.3,10.5,6.8
	c-42.1,22.9-86.7,40.8-132.9,53.5c-46,12.7-93.3,20-141,21.9C163.7,760.3,115.8,756.9,68.8,748.1L68.8,748.1z"/>
<path class="st1" d="M665,427.8c1-0.2,1.6,0.6,2.4,1c25,15,48.9,31.7,71.6,50.1c13.3,10.8,26.1,22.2,38.5,34
	c8.9,8.4,17.4,17.3,25.8,26.2c12.4,13.2,24.1,26.9,35.1,41.2c16,20.6,30.7,42.2,44,64.7c17.8,30.2,33,61.9,45.3,94.7
	c0.8,2.1,1.6,4.2,2.4,6.4c0.6,1.8,0.4,2.2-1.5,2.6c-4.1,0.8-8.2,1.5-12.4,2.1c-7.5,1.1-15,2.3-22.5,3.2c-7,0.9-14,1.6-21,2.2
	c-9.1,0.8-18.3,1.4-27.5,2c-3.1,0.2-6.2,0.1-9.2,0.2c-5.9,0.1-11.8,0.4-17.7,0.4c-10.8,0.1-21.6-0.1-32.3-0.6
	c-11.8-0.6-23.5-1.5-35.3-2.6c-17.1-1.7-34.1-4.1-51-7.3c-2-0.4-2.4-1.2-2.3-2.9c0.3-7.5-0.4-15-0.7-22.4
	c-0.6-12.8-1.6-25.5-3.1-38.3c-1.4-11.8-3-23.6-5-35.3c-1.8-10.8-4-21.7-6.4-32.3c-3.9-17.6-8.8-34.9-14.3-52.1
	c-3.7-11.7-7.7-23.2-12.4-34.6c-0.6-1.5-0.8-3.3-0.5-4.9c2.3-12.9,4.2-25.9,5.7-39c1.1-10.3,2-20.5,2.7-30.8
	c0.6-8.8,0.8-17.7,1.2-26.5C664.6,428.7,664.5,428.2,665,427.8L665,427.8z"/>
<path class="st1" d="M961.5,416.1c-0.1,0.3-0.2,0.7-0.4,1c-6.7,6.9-13.1,14.1-20.2,20.7c-5.3,4.9-10.4,10.1-15.8,15
	c-17.4,15.9-35.7,30.8-54.8,44.7c-16.2,11.7-32.9,22.7-50.1,32.8c-3.7,2.2-3.8,2.3-6.6-0.9c-8.9-9.7-18.2-19-27.7-28.1
	c-17.5-16.7-35.9-32.3-55.2-46.9c-20.6-15.6-42.2-29.9-64.6-42.9c-21.4-12.4-43.5-23.6-66.2-33.4c-19.7-8.5-39.7-16.1-60.1-22.7
	c-3.3-1.1-6.7-2.1-10-3.4c48.4-10.3,97.9-14.7,147.3-13.1C776.6,341.7,874.1,368.2,961.5,416.1L961.5,416.1z"/>
<path class="st0" d="M350,554c-14.3-15.6-27.7-31.9-40.2-48.8c-25.4-34.3-47.1-71.2-64.7-110.1c-17.3-38-30.5-77.7-39.5-118.5
	c-2.8-12.7-5.3-25.5-7.2-38.4s-3.4-25.6-4.5-38.5c-1.2-13.3-1.7-26.7-2.3-40.1c-0.2-4.2,0-4.2,3.9-3.4c30.9,6.8,61.2,15.9,90.8,27.2
	c21.2,8.2,41.9,17.4,62,27.8c5.2,2.7,10.4,5.5,15.6,8.4c2.6,1.4,2.6,1.4,1.7,4.1c-5,15.2-9.3,30.6-13.1,46.1
	c-4,16.5-7.3,33.2-9.9,50c-1.8,11.9-3.3,23.8-4.5,35.7c-0.8,7.4-1.2,14.9-1.6,22.4c-0.7,11.2-0.9,22.4-1.3,33.7
	c-0.4,13.7,0.2,27.4,1.1,41.1c0.6,9.3,1.4,18.6,2.4,27.8c1.3,11.7,2.9,23.4,4.9,35c2.1,11.9,4.3,23.9,7.1,35.7
	c0.1,0.4,0.1,0.9,0.2,1.3C351,553.3,351.3,554.1,350,554L350,554z"/>
<path class="st1" d="M619.7,605.1c-0.5,4.2-2.3,8-3.7,12c-8.5,23.7-18.4,46.9-29.8,69.3c-10.1,19.9-21.3,39.3-33.5,58
	c-13,19.9-27.2,39.1-42.4,57.4c-7.3,8.8-14.9,17.4-22.8,25.8c-6.4,6.8-12.8,13.5-19.4,20c-19.7,19.2-40.5,37.1-62.5,53.6
	c-17.8,13.3-36.3,25.7-55.4,37.1c-4.6,2.7-4,2.7-5.5-2c-7.6-24-13.7-48.4-18.3-73.1c-2.2-11.7-4-23.5-5.4-35.3
	c-1.3-10.9-2.4-21.9-3.1-32.8c-0.7-11-1.3-21.5-1.3-32.3c0-3.1,0-3.1,3.2-3.9c36.7-7.8,72.7-18.8,107.4-32.9
	c24-9.9,47.5-21.1,70.3-33.5c27.7-14.8,53.6-32.3,78.5-51.3c14.1-10.7,27.7-22.1,40.7-34.1C617.4,606.2,618.5,605.5,619.7,605.1
	L619.7,605.1L619.7,605.1z"/>
<path class="st1" d="M380.6,605.9c-134.1-26.7-248.2-89.8-342.1-189.2c0.8-1,1.8-1.8,2.9-2.3c23.5-12.7,47.7-23.8,72.5-33.5
	c26-10,52.7-18.3,79.8-24.7c5.3-1.3,10.6-2.5,15.9-3.7c2.5-0.6,2.8-0.4,3.7,2.1c4.9,13.5,10.2,26.9,16.1,40.1
	c7.8,17.6,16.4,34.9,25.8,51.8c7.7,13.9,16,27.4,24.7,40.7c8.6,13.1,17.8,25.8,27.4,38.1c11.3,14.6,23.3,28.7,35.9,42.2
	c6.8,7.3,13.8,14.4,20.7,21.7c5.2,5.4,10.8,10.3,16.3,15.5C380.6,605,380.8,605.4,380.6,605.9L380.6,605.9z"/>
<path class="st0" d="M470.5,351.4c88.7-99.6,206.9-168.2,337.4-195.9c0.6,0.9,0.8,2,0.6,3.1c-0.2,15-1.2,29.9-2.6,44.9
	c-1.4,14.9-3.3,29.5-5.8,44.2c-2.4,14.2-5.3,28.3-8.8,42.3c-3.5,14.3-7.5,28.4-12,42.2c-1,3.1-0.3,3.6-5,2.8
	c-12.8-2.3-25.7-4.2-38.7-5.8c-14.6-1.8-29.4-3-44-3.8s-29.7-1.1-44.6-0.8c-15.2,0.4-30.4,1.1-45.5,2.4c-13,1.1-25.9,2.6-38.8,4.5
	c-18.2,2.7-36.2,6.1-54.1,10.3c-11.6,2.7-23,6-34.5,9.3C472.9,351.6,471.7,351.7,470.5,351.4L470.5,351.4z"/>
<path class="st1" d="M649.5,555.1c1.5,4.2,2.9,8.2,4.2,12.4c7.3,22.4,13.2,45.2,17.9,68.3c2.6,13,4.8,26.1,6.5,39.2
	c1.3,9.8,2.2,19.6,3.1,29.4c1.9,22.5,2.4,45.1,1.8,67.6c-0.4,12.8-1.1,25.6-2.4,38.3c-1.2,11.4-2.5,22.7-4.2,34
	c-2.1,13.9-4.7,27.8-7.8,41.8c-3.8,17-8.5,33.8-13.7,50.5c-0.2,0.7-0.4,1.3-0.6,1.9c-0.1,0.5-0.6,0.9-1.1,0.9
	c-0.3,0-0.5-0.1-0.7-0.3c-1.3-0.7-2.6-1.4-3.9-2.2c-20.6-12.4-40.5-26-59.6-40.6c-11.9-9.1-23.4-18.7-34.6-28.7
	c-13.7-12.2-26.6-25.1-39.3-38.2c-1.2-1.2-2.3-2.5-3.4-3.8c-1.5-1.9-1.5-1.9,0-3.9c9.4-10.8,18.4-21.9,27.1-33.2
	c11.3-14.9,22-30.3,32-46.1c10.1-16,19.4-32.5,28-49.5c9.9-19.5,18.8-39.5,26.5-60c9.4-24.6,17.1-49.7,23.2-75.3
	C648.5,556.8,648.9,555.9,649.5,555.1L649.5,555.1z"/>
<path class="st0" d="M349.7,427.9c42.9,26.7,78.5,63.7,103.6,107.6c23.7,41.2,37,87.5,39,134.9c-58.8-36.5-103.4-91.8-126.6-157
	C356.1,486,347.9,441.6,349.7,427.9L349.7,427.9z"/>
<path class="st1" d="M507.6,669.6c1.6-45.2,13.7-89.3,35.6-128.9c25.1-46.2,61.9-85,106.7-112.6c-1.5,44.1-13.2,87.2-34,126
	C590.7,601.6,553.3,641.5,507.6,669.6L507.6,669.6z"/>
<path class="st1" d="M642.4,414.7c-89.6,45.7-195.9,45.7-285.5,0C446.5,368.9,552.9,368.9,642.4,414.7z"/>
<path class="st2" d="M350,554c0.6-0.3,0.6-0.9,0.7-1.4c0.2,0.4,0.4,0.7,0.6,1.1c0.1,0.4,0.2,1.1-0.2,1.2
	C350.5,555.1,350.2,554.5,350,554z"/>
<path class="st3" d="M619.7,605.1l0.2-0.3v0.2C619.9,605,619.8,605.1,619.7,605.1L619.7,605.1z"/>
</svg>
